<svg xmlns="http://www.w3.org/2000/svg" xmlns:xlink="http://www.w3.org/1999/xlink" version="1.1" x="0px" y="0px" viewBox="0 0 100 95.145" enable-background="new 0 0 100 95.145" xml:space="preserve"><path d="M97.425,28c3.434-3.432,3.434-8.045,0-11.477l-0.237-0.24c-1.282-1.282-2.695-2.088-4.212-2.409  c-0.323-1.484-1.13-2.928-2.407-4.209l-0.24-0.238c-1.282-1.282-2.694-2.091-4.208-2.409c-0.327-1.486-1.131-2.93-2.411-4.212  l-0.235-0.233C81.769,0.868,79.841,0,77.74,0c-1.448,0-3.624,0.449-5.744,2.568L53.644,20.922c-3.171,3.166-5.076,6.44-5.7,9.765  L26.368,9.112c-3.279-3.279-6.743-4.942-10.299-4.942c-3.576,0-6.933,1.617-10.26,4.944L4.944,9.978  c-3.131,3.131-4.744,6.285-4.927,9.637c-0.207,3.774,1.45,7.448,4.927,10.923L29.2,54.795L8.442,75.551  c-2.547,2.547-3.759,5.32-3.598,8.241c0.14,2.582,1.317,4.949,3.598,7.228l0.514,0.513c2.398,2.398,4.993,3.612,7.72,3.612  c2.745,0,5.353-1.214,7.747-3.61l26.207-26.2l23.483,23.485c2.396,2.398,5.004,3.613,7.747,3.613c2.728,0,5.326-1.215,7.722-3.613  l0.516-0.514c2.278-2.281,3.455-4.645,3.597-7.226c0.161-2.922-1.051-5.695-3.597-8.242L69.314,52.057  c3.331-0.61,6.543-2.49,9.759-5.704L97.425,28z M20.424,87.533c-2.865,2.865-5.135,2.333-7.469-0.002l-0.511-0.513  c-2.334-2.332-2.867-4.604-0.004-7.467l20.76-20.756l7.982,7.981L20.424,87.533z M86.097,76.839c2.862,2.863,2.33,5.135-0.003,7.468  l-0.513,0.512c-2.334,2.336-4.602,2.867-7.467,0.003L50.63,57.333h-0.002l-5.445,5.445l-36.24-36.24  c-4.816-4.818-3.924-8.634,0.004-12.561l0.864-0.863c3.924-3.924,7.74-4.821,12.558-0.002L86.097,76.839z M58.767,42.348  l-1.121-1.118c-5.097-5.098-6.257-10.054-0.004-16.307L75.996,6.567c1.333-1.33,2.389-1.083,3.475,0.004l0.239,0.237  c1.086,1.084,1.335,2.144,0,3.474L61.745,28.252l3.142,3.14l17.968-17.965c1.332-1.334,2.388-1.085,3.476,0l0.237,0.24  c1.088,1.086,1.334,2.141,0.003,3.476L68.602,35.107l3.143,3.141l17.965-17.965c1.334-1.332,2.39-1.088,3.476,0l0.239,0.238  c1.086,1.088,1.335,2.146,0,3.478L75.071,42.35C68.817,48.607,63.859,47.442,58.767,42.348z" fill="#FFF"></path></svg>
