<svg xmlns="http://www.w3.org/2000/svg" xmlns:xlink="http://www.w3.org/1999/xlink" version="1.1" x="0px" y="0px" viewBox="0 0 100 100" enable-background="new 0 0 100 100" xml:space="preserve"><path d="M62.583,11.375L11.375,62.583c-1.934,1.934-1.934,5.069,0,7.003l19.039,19.039c1.934,1.934,5.069,1.934,7.003,0  l51.209-51.209c1.934-1.934,1.934-5.069,0-7.003L69.586,11.375C67.652,9.441,64.517,9.441,62.583,11.375z M85.124,33.915  L33.915,85.124L14.876,66.085l4.997-4.997l6.784,6.784l2.918-2.918l-6.784-6.784l3.465-3.465l10.979,10.979l2.918-2.918  L29.174,51.787l3.465-3.465l6.784,6.784l2.918-2.918l-6.784-6.784l3.465-3.465L50,52.918l0.085,0.085l2.918-2.918L52.918,50  L41.939,39.021l3.465-3.465l6.869,6.869l2.918-2.918l-6.869-6.869l3.465-3.465l11.064,11.064l2.918-2.918L54.705,26.256l3.465-3.465  l6.869,6.869l2.918-2.918l-6.869-6.869l4.997-4.997L85.124,33.915z" fill="#fff"></path></svg>
