<?xml version="1.0" encoding="UTF-8" standalone="no"?>
<svg width="82px" height="82px" viewBox="0 0 82 82" version="1.1" xmlns="http://www.w3.org/2000/svg" xmlns:xlink="http://www.w3.org/1999/xlink" xmlns:sketch="http://www.bohemiancoding.com/sketch/ns">
    <!-- Generator: Sketch 3.4.4 (17249) - http://www.bohemiancoding.com/sketch -->
    <title>Shape</title>
    <desc>Created with Sketch.</desc>
    <defs></defs>
    <g id="Page-1" stroke="none" stroke-width="1" fill="none" fill-rule="evenodd" sketch:type="MSPage">
        <path d="M53.583,2.375 L2.375,53.583 C0.441,55.517 0.441,58.652 2.375,60.586 L21.414,79.625 C23.348,81.559 26.483,81.559 28.417,79.625 L79.626,28.416 C81.56,26.482 81.56,23.347 79.626,21.413 L60.586,2.375 C58.652,0.441 55.517,0.441 53.583,2.375 L53.583,2.375 Z M76.124,24.915 L24.915,76.124 L5.876,57.085 L10.873,52.088 L17.657,58.872 L20.575,55.954 L13.791,49.17 L17.256,45.705 L28.235,56.684 L31.153,53.766 L20.174,42.787 L23.639,39.322 L30.423,46.106 L33.341,43.188 L26.557,36.404 L30.022,32.939 L41,43.918 L41.085,44.003 L44.003,41.085 L43.918,41 L32.939,30.021 L36.404,26.556 L43.273,33.425 L46.191,30.507 L39.322,23.638 L42.787,20.173 L53.851,31.237 L56.769,28.319 L45.705,17.256 L49.17,13.791 L56.039,20.66 L58.957,17.742 L52.088,10.873 L57.085,5.876 L76.124,24.915 L76.124,24.915 Z" id="Shape" fill="#FFFFFF" sketch:type="MSShapeGroup"></path>
    </g>
</svg>